<?xml version="1.0" encoding="utf-8"?>
<!-- Generator: Adobe Illustrator 24.1.1, SVG Export Plug-In . SVG Version: 6.00 Build 0)  -->
<svg version="1.1" id="Layer_1" xmlns="http://www.w3.org/2000/svg" xmlns:xlink="http://www.w3.org/1999/xlink" x="0px" y="0px"
	 viewBox="0 0 50 61.1" style="enable-background:new 0 0 50 61.1;" xml:space="preserve">
<style type="text/css">
	.st0{fill:#5F5654;}
	.st1{fill:#EEE815;}
</style>
<path class="st0" d="M24.43,61.1c-0.77,0-1.39-0.63-1.39-1.39c0-0.28,0.08-0.56,0.24-0.79l0.99-1.66l0.17,0.1l0.17-0.1l0.99,1.66
	c0.16,0.23,0.24,0.51,0.24,0.79C25.82,60.47,25.2,61.1,24.43,61.1z"/>
<path class="st0" d="M23.52,59.26c-0.07,0.14-0.1,0.29-0.1,0.44c0,0.56,0.45,1.01,1.01,1.01c0.56,0,1.01-0.45,1.01-1.01
	c0-0.16-0.04-0.31-0.1-0.44l-0.91-1.53L23.52,59.26z"/>
<path class="st0" d="M2.29,60.2c-0.77,0-1.39-0.63-1.39-1.39c0-0.28,0.08-0.55,0.24-0.79l0.99-1.67l0.17,0.1l0.17-0.1l0.99,1.67
	c0.16,0.23,0.24,0.5,0.24,0.79C3.68,59.57,3.06,60.2,2.29,60.2z"/>
<path class="st0" d="M1.38,58.36c-0.07,0.14-0.1,0.29-0.1,0.44c0,0.56,0.45,1.01,1.01,1.01S3.3,59.36,3.3,58.8
	c0-0.16-0.04-0.31-0.1-0.45l-0.91-1.53L1.38,58.36z"/>
<path class="st0" d="M14.41,59.1c-0.77,0-1.39-0.63-1.39-1.39c0-0.28,0.08-0.55,0.24-0.79l0.99-1.67l0.17,0.1l0.17-0.1l0.99,1.67
	c0.16,0.23,0.24,0.5,0.24,0.79C15.8,58.47,15.18,59.1,14.41,59.1z"/>
<path class="st0" d="M13.5,57.26c-0.07,0.14-0.1,0.29-0.1,0.45c0,0.56,0.45,1.01,1.01,1.01c0.56,0,1.01-0.45,1.01-1.01
	c0-0.16-0.04-0.31-0.1-0.45l-0.91-1.53L13.5,57.26z"/>
<path class="st0" d="M20.02,54.09c-0.77,0-1.39-0.63-1.39-1.39c0-0.28,0.08-0.55,0.24-0.78l0.99-1.67l0.17,0.1l0.17-0.1l0.99,1.67
	c0.16,0.23,0.24,0.5,0.24,0.79C21.42,53.46,20.79,54.09,20.02,54.09z"/>
<path class="st0" d="M19.11,52.25c-0.07,0.14-0.1,0.29-0.1,0.45c0,0.56,0.45,1.01,1.01,1.01c0.56,0,1.01-0.45,1.01-1.01
	c0-0.16-0.04-0.31-0.1-0.44l-0.91-1.53L19.11,52.25z"/>
<path class="st0" d="M28.12,53.88c-0.77,0-1.39-0.63-1.39-1.39c0-0.28,0.08-0.55,0.24-0.78l0.99-1.67l0.17,0.1l0.17-0.1l0.99,1.67
	c0.16,0.23,0.24,0.5,0.24,0.78C29.51,53.25,28.89,53.88,28.12,53.88z"/>
<path class="st0" d="M27.21,52.04c-0.07,0.14-0.1,0.29-0.1,0.45c0,0.56,0.45,1.01,1.01,1.01c0.56,0,1.01-0.45,1.01-1.01
	c0-0.16-0.04-0.31-0.1-0.45l-0.91-1.53L27.21,52.04z"/>
<path class="st0" d="M8.5,52.98c-0.77,0-1.39-0.63-1.39-1.39c0-0.28,0.08-0.55,0.24-0.79l0.99-1.67l0.17,0.1l0.17-0.1l0.99,1.67
	c0.16,0.23,0.24,0.5,0.24,0.79C9.89,52.36,9.27,52.98,8.5,52.98z"/>
<path class="st0" d="M7.59,51.15c-0.07,0.14-0.1,0.29-0.1,0.45c0,0.56,0.45,1.01,1.01,1.01c0.56,0,1.01-0.45,1.01-1.01
	c0-0.16-0.04-0.31-0.1-0.45L8.5,49.61L7.59,51.15z"/>
<path class="st1" d="M34.12,52.21l-0.1-0.16l-0.16,0.1l-4.13-6.52l0.16-0.1l-0.1-0.16c5.48-3.39,8.75-9.26,8.75-15.69
	c0-10.17-8.27-18.44-18.44-18.44c-3.57,0-7.04,1.02-10.02,2.96l-0.1-0.16l-0.16,0.1L4.14,5.16l0.16-0.1l0.05-0.18l1.75,0.52
	c4.98,1.22,9.28-0.03,12.8-3.71L20.34,0l2.37,2.76c2.95,2.8,6.47,3.81,10.5,3.03l3.11-0.92l0.23-0.09l0.02,0.25l0.3,2.08
	c0.99,4.93,3.88,8.27,8.62,9.96l2.12,0.62l-0.11,0.21l-0.91,2.02c-1.69,4.36-1.39,8.29,0.9,11.74L50,34.58l-2.77,1.8
	c-3.53,2.83-5.04,6.84-4.5,11.96L43,50.1l-0.79,0C39,50.14,36.28,50.85,34.12,52.21z"/>
<path class="st0" d="M16.7,46.51l0.11,0.12c1.4,1.52,2.71,2.25,3.88,2.15c1.05-0.08,2.04-0.82,2.95-2.18l0.09-0.13l0.14,0.06
	c1.35,0.53,2.47,0.6,3.34,0.21c0.78-0.35,1.4-1.09,1.82-2.2L10.51,15.22c-3.08-0.24-5.18,0.3-6.24,1.62
	c-1.05,1.31-1.12,3.45-0.2,6.36l0.04,0.14l-0.12,0.08C1.42,25.11,0.08,26.86,0,28.61c-0.08,1.72,1.05,3.51,3.36,5.34l0.1,0.08
	l-0.03,0.12c-0.78,3.07-0.64,5.31,0.42,6.64c0.86,1.08,2.38,1.61,4.5,1.56l0.2,0l0,0.2c-0.01,3.17,0.64,5.13,1.92,5.81
	c1.31,0.7,3.36,0.11,6.09-1.75L16.7,46.51z"/>
<path d="M29.25,44.51"/>
<path class="st1" d="M10.88,15.1l18.43,29.15c5.03-3.18,8.03-8.62,8.03-14.58c0-9.51-7.73-17.24-17.24-17.24
	C16.82,12.43,13.64,13.35,10.88,15.1z"/>
<path d="M10.62,15.04"/>
<path class="st0" d="M1.59,44.97c-0.77,0-1.39-0.63-1.39-1.39c0-0.28,0.08-0.55,0.24-0.78l0.99-1.67l0.17,0.1l0.17-0.1l0.99,1.67
	c0.16,0.23,0.24,0.5,0.24,0.78C2.98,44.34,2.35,44.97,1.59,44.97z"/>
<path class="st0" d="M0.68,43.13c-0.07,0.14-0.1,0.29-0.1,0.45c0,0.56,0.45,1.01,1.01,1.01s1.01-0.45,1.01-1.01
	c0-0.16-0.04-0.31-0.1-0.45L1.59,41.6L0.68,43.13z"/>
</svg>
