<?xml version="1.0" encoding="utf-8"?>
<!-- Generator: Adobe Illustrator 24.2.1, SVG Export Plug-In . SVG Version: 6.00 Build 0)  -->
<svg version="1.1" id="Layer_1" xmlns="http://www.w3.org/2000/svg" xmlns:xlink="http://www.w3.org/1999/xlink" x="0px" y="0px"
	 viewBox="0 0 156.26 149.62" style="enable-background:new 0 0 156.26 149.62;" xml:space="preserve">
<style type="text/css">
	.st0{fill-rule:evenodd;clip-rule:evenodd;fill:none;stroke:#713228;stroke-width:15.9999;stroke-miterlimit:2.6131;}
	.st1{fill-rule:evenodd;clip-rule:evenodd;fill:none;stroke:#713228;stroke-width:9.9998;stroke-miterlimit:2.6131;}
	.st2{fill-rule:evenodd;clip-rule:evenodd;fill:#713228;stroke:#713228;stroke-width:4;stroke-miterlimit:2.6131;}
	.st3{fill:#713228;stroke:#713228;stroke-width:0.9998;stroke-miterlimit:1;}
	.st4{font-family:'Arial-BoldMT';}
	.st5{font-size:71.5839px;}
	.st6{font-size:52px;}
</style>
<ellipse transform="matrix(0.392 -0.9199 0.9199 0.392 -82.7233 105.677)" class="st0" cx="38.59" cy="115.43" rx="23.4" ry="23.4"/>
<ellipse transform="matrix(0.987 -0.1608 0.1608 0.987 -17.2026 18.238)" class="st0" cx="104.1" cy="115.43" rx="23.4" ry="23.4"/>
<path class="st1" d="M103.45,142.08v-3.26 M103.45,92.04v-78.5"/>
<line class="st1" x1="67.53" y1="11.12" x2="139.53" y2="11.12"/>
<line class="st2" x1="138.57" y1="61.13" x2="149.07" y2="61.13"/>
<line class="st2" x1="138.28" y1="53.69" x2="149.37" y2="48.2"/>
<line class="st2" x1="137.58" y1="68.19" x2="148.7" y2="74.61"/>
<text transform="matrix(0.3539 0 0 1 17.9363 82.6902)" class="st3 st4 st5">S</text>
<text transform="matrix(0.3539 0 0 1 117.1814 82.6906)" class="st3 st4 st5">S</text>
<text transform="matrix(0.3539 0 0 1 36.5106 82.6902)" class="st3 st4 st6">c</text>
</svg>
